<svg xmlns="http://www.w3.org/2000/svg" xmlns:xlink="http://www.w3.org/1999/xlink" width="576" zoomAndPan="magnify" viewBox="0 0 432 431.999984" height="576" preserveAspectRatio="xMidYMid meet" version="1.0"><defs><clipPath id="0b96e99ba4"><path d="M 19 13.351562 L 418 13.351562 L 418 412 L 19 412 Z M 19 13.351562 " clip-rule="nonzero"/></clipPath><clipPath id="5a5745f429"><path d="M 17.265625 217.535156 L 414 217.535156 L 414 418.289062 L 17.265625 418.289062 Z M 17.265625 217.535156 " clip-rule="nonzero"/></clipPath><clipPath id="651e62f7b3"><path d="M 5.730469 254 L 272 254 L 272 330 L 5.730469 330 Z M 5.730469 254 " clip-rule="nonzero"/></clipPath><clipPath id="38ea9e965a"><path d="M 199 76 L 426.289062 76 L 426.289062 252 L 199 252 Z M 199 76 " clip-rule="nonzero"/></clipPath><clipPath id="75ab83c1c2"><path d="M 108 73 L 124 73 L 124 89 L 108 89 Z M 108 73 " clip-rule="nonzero"/></clipPath><clipPath id="8a29df532a"><path d="M 104.125 77.785156 L 119.183594 68.664062 L 128.304688 83.726562 L 113.246094 92.84375 Z M 104.125 77.785156 " clip-rule="nonzero"/></clipPath><clipPath id="911c3a84d4"><path d="M 111.65625 73.226562 L 117.160156 76.90625 L 123.746094 76.195312 L 120.0625 81.699219 L 120.773438 88.285156 L 115.269531 84.601562 L 108.683594 85.3125 L 112.367188 79.808594 Z M 111.65625 73.226562 " clip-rule="nonzero"/></clipPath><clipPath id="7e1a327be7"><path d="M 0.480469 0.199219 L 15.839844 0.199219 L 15.839844 15.320312 L 0.480469 15.320312 Z M 0.480469 0.199219 " clip-rule="nonzero"/></clipPath><clipPath id="838190b581"><path d="M -3.875 4.785156 L 11.183594 -4.335938 L 20.304688 10.726562 L 5.246094 19.84375 Z M -3.875 4.785156 " clip-rule="nonzero"/></clipPath><clipPath id="01dee9e276"><path d="M 3.65625 0.226562 L 9.160156 3.90625 L 15.746094 3.195312 L 12.0625 8.699219 L 12.773438 15.285156 L 7.269531 11.601562 L 0.683594 12.3125 L 4.367188 6.808594 Z M 3.65625 0.226562 " clip-rule="nonzero"/></clipPath><clipPath id="6c7298fa12"><rect x="0" width="16" y="0" height="16"/></clipPath><clipPath id="9f06f529d5"><path d="M 226 47 L 244 47 L 244 66 L 226 66 Z M 226 47 " clip-rule="nonzero"/></clipPath><clipPath id="af08a58004"><path d="M 224.753906 49.363281 L 242.113281 46.429688 L 245.046875 63.789062 L 227.6875 66.722656 Z M 224.753906 49.363281 " clip-rule="nonzero"/></clipPath><clipPath id="fa1b9b3d0c"><path d="M 233.433594 47.894531 L 237.195312 53.347656 L 243.578125 55.109375 L 238.128906 58.871094 L 236.367188 65.257812 L 232.605469 59.804688 L 226.21875 58.042969 L 231.671875 54.28125 Z M 233.433594 47.894531 " clip-rule="nonzero"/></clipPath><clipPath id="97b0dec65c"><path d="M 0.078125 0.761719 L 17.601562 0.761719 L 17.601562 18.28125 L 0.078125 18.28125 Z M 0.078125 0.761719 " clip-rule="nonzero"/></clipPath><clipPath id="a75909202f"><path d="M -1.246094 2.363281 L 16.113281 -0.570312 L 19.046875 16.789062 L 1.6875 19.722656 Z M -1.246094 2.363281 " clip-rule="nonzero"/></clipPath><clipPath id="a37be5a3d0"><path d="M 7.433594 0.894531 L 11.195312 6.347656 L 17.578125 8.109375 L 12.128906 11.871094 L 10.367188 18.257812 L 6.605469 12.804688 L 0.21875 11.042969 L 5.671875 7.28125 Z M 7.433594 0.894531 " clip-rule="nonzero"/></clipPath><clipPath id="00bbffc29e"><rect x="0" width="18" y="0" height="19"/></clipPath><clipPath id="c2956f8d15"><path d="M 269 34 L 288 34 L 288 52 L 269 52 Z M 269 34 " clip-rule="nonzero"/></clipPath><clipPath id="51a1ecf71c"><path d="M 268.761719 35.386719 L 286.269531 33.507812 L 288.144531 51.015625 L 270.640625 52.890625 Z M 268.761719 35.386719 " clip-rule="nonzero"/></clipPath><clipPath id="bcda543395"><path d="M 277.515625 34.445312 L 280.941406 40.117188 L 287.207031 42.261719 L 281.539062 45.6875 L 279.390625 51.953125 L 275.96875 46.285156 L 269.703125 44.136719 L 275.371094 40.714844 Z M 277.515625 34.445312 " clip-rule="nonzero"/></clipPath><clipPath id="7de880ba61"><path d="M 0.519531 0.320312 L 18.28125 0.320312 L 18.28125 18 L 0.519531 18 Z M 0.519531 0.320312 " clip-rule="nonzero"/></clipPath><clipPath id="f20bede2d0"><path d="M -0.238281 1.386719 L 17.269531 -0.492188 L 19.144531 17.015625 L 1.640625 18.890625 Z M -0.238281 1.386719 " clip-rule="nonzero"/></clipPath><clipPath id="9c1c9bc42e"><path d="M 8.515625 0.445312 L 11.941406 6.117188 L 18.207031 8.261719 L 12.539062 11.6875 L 10.390625 17.953125 L 6.96875 12.285156 L 0.703125 10.136719 L 6.371094 6.714844 Z M 8.515625 0.445312 " clip-rule="nonzero"/></clipPath><clipPath id="79c873c865"><rect x="0" width="19" y="0" height="18"/></clipPath><clipPath id="d9aabe0db3"><path d="M 151 35 L 168 35 L 168 52 L 151 52 Z M 151 35 " clip-rule="nonzero"/></clipPath><clipPath id="b266715552"><path d="M 155.261719 31.578125 L 171.347656 38.734375 L 164.191406 54.820312 L 148.105469 47.664062 Z M 155.261719 31.578125 " clip-rule="nonzero"/></clipPath><clipPath id="45f429f921"><path d="M 163.304688 35.15625 L 163.421875 41.78125 L 167.769531 46.777344 L 161.144531 46.898438 L 156.148438 51.242188 L 156.027344 44.621094 L 151.683594 39.621094 L 158.304688 39.503906 Z M 163.304688 35.15625 " clip-rule="nonzero"/></clipPath><clipPath id="a1506c66e9"><path d="M 0.679688 0.0390625 L 17 0.0390625 L 17 16.359375 L 0.679688 16.359375 Z M 0.679688 0.0390625 " clip-rule="nonzero"/></clipPath><clipPath id="4ec214e0d7"><path d="M 4.261719 -3.421875 L 20.347656 3.734375 L 13.191406 19.820312 L -2.894531 12.664062 Z M 4.261719 -3.421875 " clip-rule="nonzero"/></clipPath><clipPath id="e1f468063b"><path d="M 12.304688 0.15625 L 12.421875 6.78125 L 16.769531 11.777344 L 10.144531 11.898438 L 5.148438 16.242188 L 5.027344 9.621094 L 0.683594 4.621094 L 7.304688 4.503906 Z M 12.304688 0.15625 " clip-rule="nonzero"/></clipPath><clipPath id="547e7060ef"><rect x="0" width="17" y="0" height="17"/></clipPath></defs><g clip-path="url(#0b96e99ba4)"><path fill="#708aa3" d="M 417.507812 212.800781 C 417.507812 322.753906 328.371094 411.890625 218.421875 411.890625 C 108.464844 411.890625 19.328125 322.753906 19.328125 212.800781 C 19.328125 102.847656 108.464844 13.710938 218.421875 13.710938 C 328.371094 13.710938 417.507812 102.847656 417.507812 212.800781 " fill-opacity="1" fill-rule="nonzero"/></g><path fill="#ffffff" d="M 87.007812 248.546875 L 10.808594 248.707031 L 109.234375 132.542969 L 120.484375 132.542969 L 185.382812 58.125 L 245.953125 132.542969 L 87.007812 248.546875 " fill-opacity="1" fill-rule="nonzero"/><path fill="#708aa3" d="M 205.289062 243.480469 L 416.394531 243.480469 L 363.207031 166.507812 L 348.242188 166.507812 L 285.078125 81.292969 L 268.453125 81.292969 L 231.882812 133.523438 L 214.433594 133.523438 L 152.929688 204.082031 L 205.289062 243.480469 " fill-opacity="1" fill-rule="nonzero"/><path fill="#708aa3" d="M 57.984375 243.480469 L 274.910156 243.480469 L 179.328125 115.195312 L 117.820312 188.496094 L 103.691406 188.496094 L 57.984375 243.480469 " fill-opacity="1" fill-rule="nonzero"/><path fill="#ffffff" d="M 264.558594 238.289062 L 179.082031 123.550781 L 120.238281 193.6875 L 106.125 193.6875 L 69.046875 238.289062 Z M 57.980469 248.671875 L 46.914062 248.671875 L 101.253906 183.308594 L 115.398438 183.308594 L 179.5625 106.828125 L 285.246094 248.671875 L 57.980469 248.671875 " fill-opacity="1" fill-rule="nonzero"/><path fill="#ffffff" d="M 234.707031 186.1875 L 279.703125 119.5625 L 279.484375 165.207031 L 289.4375 134.269531 L 307.394531 186.1875 L 305.660156 141.195312 L 380.945312 242.4375 L 274.910156 243.480469 L 234.707031 186.1875 " fill-opacity="1" fill-rule="nonzero"/><path fill="#ffffff" d="M 120.484375 243.300781 L 181.921875 161.960938 L 182.136719 197.871094 L 190.578125 176.671875 L 202.691406 210.417969 L 201.394531 177.535156 L 248.117188 240.707031 L 120.484375 243.300781 " fill-opacity="1" fill-rule="nonzero"/><g clip-path="url(#5a5745f429)"><path fill="#ffffff" d="M 17.710938 252.390625 C 17.710938 252.390625 87.683594 208.195312 167.785156 243.183594 C 167.785156 243.183594 197.242188 245.023438 234.992188 232.136719 C 272.738281 219.246094 332.585938 196.226562 413.605469 264.359375 C 413.605469 264.359375 388.746094 369.316406 289.3125 405.222656 C 189.878906 441.128906 67.429688 407.0625 17.710938 252.390625 " fill-opacity="1" fill-rule="nonzero"/></g><path fill="#708aa3" d="M 363.136719 287.199219 C 363.136719 287.199219 302.617188 319.226562 240.683594 286.464844 C 178.757812 253.710938 126.253906 225.589844 53.304688 246.476562 C 53.304688 246.476562 108.019531 241.546875 148.515625 269.4375 C 189.015625 297.324219 276.164062 346.648438 363.136719 287.199219 " fill-opacity="1" fill-rule="nonzero"/><g clip-path="url(#651e62f7b3)"><path fill="#708aa3" d="M 271.453125 322.871094 C 271.453125 322.871094 224.304688 326.015625 168.113281 293.070312 C 111.925781 260.125 74.242188 241.582031 5.730469 264.484375 C 5.730469 264.484375 58.929688 256.585938 118.761719 294.925781 C 178.597656 333.269531 229.46875 334.375 271.453125 322.871094 " fill-opacity="1" fill-rule="nonzero"/></g><path fill="#708aa3" d="M 425.566406 278.203125 C 425.566406 278.203125 396.953125 269.425781 350.828125 282.945312 C 304.703125 296.464844 271.613281 294.828125 241.144531 279.628906 C 241.144531 279.628906 270.964844 287.34375 303.832031 275.226562 C 336.699219 263.113281 387.382812 249.890625 425.566406 278.203125 " fill-opacity="1" fill-rule="nonzero"/><path fill="#708aa3" d="M 390.417969 255.820312 C 390.417969 255.820312 353.378906 253.34375 334.148438 258.367188 C 314.925781 263.378906 261.695312 289.015625 211.242188 264.46875 C 211.242188 264.46875 240.269531 266.976562 278.265625 255.207031 C 316.261719 243.429688 345.933594 236.25 390.417969 255.820312 " fill-opacity="1" fill-rule="nonzero"/><path fill="#708aa3" d="M 359.378906 240.582031 C 359.378906 240.582031 335.785156 233.855469 309.042969 240.082031 C 282.289062 246.316406 228.605469 270.207031 179.523438 250.894531 C 179.523438 250.894531 205.621094 254.359375 248.554688 237.191406 C 291.492188 220.023438 334.609375 225.761719 359.378906 240.582031 " fill-opacity="1" fill-rule="nonzero"/><path fill="#708aa3" d="M 98.617188 334.636719 C 144.085938 361.914062 193.445312 360.617188 193.445312 360.617188 C 138.886719 352.824219 106.789062 327.28125 84.332031 315.800781 C 65.773438 306.3125 50.097656 302.070312 41.128906 300.238281 C 37.160156 291.660156 33.765625 282.765625 31.058594 273.570312 C 48.179688 274.722656 74.707031 279.300781 100.894531 295.019531 C 144.734375 321.320312 160.320312 332.039062 208.058594 336.910156 C 255.796875 341.78125 336.65625 315.476562 361.984375 297.941406 C 376.722656 287.742188 392.109375 285.785156 402.40625 285.929688 C 374.847656 360.617188 303.03125 413.871094 218.777344 413.871094 C 144.789062 413.871094 80.429688 372.789062 47.171875 312.207031 C 57.644531 314.054688 73.1875 319.378906 98.617188 334.636719 " fill-opacity="1" fill-rule="nonzero"/><g clip-path="url(#38ea9e965a)"><path fill="#ffffff" d="M 365.917969 161.316406 L 350.851562 161.316406 L 287.6875 76.097656 L 265.742188 76.097656 L 229.175781 128.328125 L 212.070312 128.328125 L 199.628906 142.601562 L 206.191406 150.863281 L 216.785156 138.710938 L 234.585938 138.710938 L 271.152344 86.480469 L 282.457031 86.480469 L 345.621094 171.695312 L 360.472656 171.695312 L 415.816406 251.921875 L 426.289062 248.671875 L 365.917969 161.316406 " fill-opacity="1" fill-rule="nonzero"/></g><g clip-path="url(#75ab83c1c2)"><g clip-path="url(#8a29df532a)"><g clip-path="url(#911c3a84d4)"><g transform="matrix(1, 0, 0, 1, 108, 73)"><g clip-path="url(#6c7298fa12)"><g clip-path="url(#7e1a327be7)"><g clip-path="url(#838190b581)"><g clip-path="url(#01dee9e276)"><path fill="#708aa3" d="M -3.875 4.785156 L 11.183594 -4.335938 L 20.304688 10.726562 L 5.246094 19.84375 Z M -3.875 4.785156 " fill-opacity="1" fill-rule="nonzero"/></g></g></g></g></g></g></g></g><g clip-path="url(#9f06f529d5)"><g clip-path="url(#af08a58004)"><g clip-path="url(#fa1b9b3d0c)"><g transform="matrix(1, 0, 0, 1, 226, 47)"><g clip-path="url(#00bbffc29e)"><g clip-path="url(#97b0dec65c)"><g clip-path="url(#a75909202f)"><g clip-path="url(#a37be5a3d0)"><path fill="#708aa3" d="M -1.246094 2.363281 L 16.113281 -0.570312 L 19.046875 16.789062 L 1.6875 19.722656 Z M -1.246094 2.363281 " fill-opacity="1" fill-rule="nonzero"/></g></g></g></g></g></g></g></g><g clip-path="url(#c2956f8d15)"><g clip-path="url(#51a1ecf71c)"><g clip-path="url(#bcda543395)"><g transform="matrix(1, 0, 0, 1, 269, 34)"><g clip-path="url(#79c873c865)"><g clip-path="url(#7de880ba61)"><g clip-path="url(#f20bede2d0)"><g clip-path="url(#9c1c9bc42e)"><path fill="#708aa3" d="M -0.238281 1.386719 L 17.269531 -0.492188 L 19.144531 17.015625 L 1.640625 18.890625 Z M -0.238281 1.386719 " fill-opacity="1" fill-rule="nonzero"/></g></g></g></g></g></g></g></g><g clip-path="url(#d9aabe0db3)"><g clip-path="url(#b266715552)"><g clip-path="url(#45f429f921)"><g transform="matrix(1, 0, 0, 1, 151, 35)"><g clip-path="url(#547e7060ef)"><g clip-path="url(#a1506c66e9)"><g clip-path="url(#4ec214e0d7)"><g clip-path="url(#e1f468063b)"><path fill="#708aa3" d="M 4.261719 -3.421875 L 20.347656 3.734375 L 13.191406 19.820312 L -2.894531 12.664062 Z M 4.261719 -3.421875 " fill-opacity="1" fill-rule="nonzero"/></g></g></g></g></g></g></g></g></svg>