<svg xmlns="http://www.w3.org/2000/svg" xmlns:xlink="http://www.w3.org/1999/xlink" width="576" zoomAndPan="magnify" viewBox="0 0 432 115.499997" height="154" preserveAspectRatio="xMidYMid meet" version="1.0"><defs><g/><clipPath id="04640c2884"><path d="M 83 10 L 431.066406 10 L 431.066406 103 L 83 103 Z M 83 10 " clip-rule="nonzero"/></clipPath><clipPath id="c7e7c6be1b"><rect x="0" width="349" y="0" height="93"/></clipPath><clipPath id="a61ff307fe"><path d="M 3 24.570312 L 68 24.570312 L 68 90 L 3 90 Z M 3 24.570312 " clip-rule="nonzero"/></clipPath><clipPath id="e018316080"><path d="M 2.796875 57.59375 L 67 57.59375 L 67 90.070312 L 2.796875 90.070312 Z M 2.796875 57.59375 " clip-rule="nonzero"/></clipPath><clipPath id="fc7d3e2364"><path d="M 0.929688 63 L 44 63 L 44 76 L 0.929688 76 Z M 0.929688 63 " clip-rule="nonzero"/></clipPath><clipPath id="3002fb7871"><path d="M 39 64 L 68.886719 64 L 68.886719 70 L 39 70 Z M 39 64 " clip-rule="nonzero"/></clipPath><clipPath id="a157642e5d"><path d="M 32.191406 34.578125 L 68.886719 34.578125 L 68.886719 63.195312 L 32.191406 63.195312 Z M 32.191406 34.578125 " clip-rule="nonzero"/></clipPath></defs><g clip-path="url(#04640c2884)"><g transform="matrix(1, 0, 0, 1, 83, 10)"><g clip-path="url(#c7e7c6be1b)"><g fill="#ffffff" fill-opacity="1"><g transform="translate(0.441986, 74.700369)"><g><path d="M 2.34375 -48.859375 C 3.5 -48.804688 5.050781 -48.753906 7 -48.703125 C 8.957031 -48.660156 10.898438 -48.640625 12.828125 -48.640625 C 15.035156 -48.640625 17.175781 -48.660156 19.25 -48.703125 C 21.320312 -48.753906 22.796875 -48.78125 23.671875 -48.78125 C 30.066406 -48.78125 34.847656 -47.515625 38.015625 -44.984375 C 41.191406 -42.453125 42.78125 -39.1875 42.78125 -35.1875 C 42.78125 -33.53125 42.457031 -31.789062 41.8125 -29.96875 C 41.164062 -28.15625 40.070312 -26.476562 38.53125 -24.9375 C 36.988281 -23.394531 34.882812 -22.140625 32.21875 -21.171875 C 29.550781 -20.210938 26.195312 -19.734375 22.15625 -19.734375 L 15.109375 -19.734375 L 15.109375 -21.109375 L 21.453125 -21.109375 C 24.171875 -21.109375 26.226562 -21.726562 27.625 -22.96875 C 29.03125 -24.21875 30 -25.851562 30.53125 -27.875 C 31.0625 -29.894531 31.328125 -32.082031 31.328125 -34.4375 C 31.328125 -38.800781 30.679688 -42.0625 29.390625 -44.21875 C 28.109375 -46.382812 25.898438 -47.46875 22.765625 -47.46875 C 20.972656 -47.46875 19.8125 -47.078125 19.28125 -46.296875 C 18.75 -45.515625 18.484375 -43.925781 18.484375 -41.53125 L 18.484375 -7.734375 C 18.484375 -5.929688 18.664062 -4.59375 19.03125 -3.71875 C 19.40625 -2.851562 20.117188 -2.28125 21.171875 -2 C 22.234375 -1.726562 23.800781 -1.566406 25.875 -1.515625 L 25.875 0 C 24.445312 -0.0390625 22.601562 -0.0820312 20.34375 -0.125 C 18.09375 -0.175781 15.726562 -0.203125 13.25 -0.203125 C 11.269531 -0.203125 9.335938 -0.175781 7.453125 -0.125 C 5.566406 -0.0820312 3.863281 -0.0390625 2.34375 0 L 2.34375 -1.375 C 3.8125 -1.46875 4.914062 -1.648438 5.65625 -1.921875 C 6.394531 -2.203125 6.890625 -2.753906 7.140625 -3.578125 C 7.390625 -4.410156 7.515625 -5.65625 7.515625 -7.3125 L 7.515625 -41.53125 C 7.515625 -43.238281 7.390625 -44.492188 7.140625 -45.296875 C 6.890625 -46.097656 6.382812 -46.648438 5.625 -46.953125 C 4.863281 -47.253906 3.769531 -47.425781 2.34375 -47.46875 Z M 2.34375 -48.859375 "/></g></g></g><g fill="#ffffff" fill-opacity="1"><g transform="translate(43.563683, 74.700369)"><g><path d="M 19.453125 -36.640625 C 22.816406 -36.640625 25.757812 -36.015625 28.28125 -34.765625 C 30.8125 -33.523438 32.789062 -31.523438 34.21875 -28.765625 C 35.644531 -26.015625 36.359375 -22.359375 36.359375 -17.796875 C 36.359375 -13.242188 35.644531 -9.597656 34.21875 -6.859375 C 32.789062 -4.128906 30.8125 -2.140625 28.28125 -0.890625 C 25.757812 0.347656 22.816406 0.96875 19.453125 0.96875 C 16.191406 0.96875 13.285156 0.347656 10.734375 -0.890625 C 8.179688 -2.140625 6.175781 -4.128906 4.71875 -6.859375 C 3.269531 -9.597656 2.546875 -13.242188 2.546875 -17.796875 C 2.546875 -22.359375 3.269531 -26.015625 4.71875 -28.765625 C 6.175781 -31.523438 8.179688 -33.523438 10.734375 -34.765625 C 13.285156 -36.015625 16.191406 -36.640625 19.453125 -36.640625 Z M 19.453125 -35.265625 C 17.617188 -35.265625 16.078125 -33.894531 14.828125 -31.15625 C 13.585938 -28.414062 12.96875 -23.960938 12.96875 -17.796875 C 12.96875 -11.640625 13.585938 -7.203125 14.828125 -4.484375 C 16.078125 -1.765625 17.617188 -0.40625 19.453125 -0.40625 C 21.335938 -0.40625 22.890625 -1.765625 24.109375 -4.484375 C 25.328125 -7.203125 25.9375 -11.640625 25.9375 -17.796875 C 25.9375 -23.960938 25.328125 -28.414062 24.109375 -31.15625 C 22.890625 -33.894531 21.335938 -35.265625 19.453125 -35.265625 Z M 19.453125 -35.265625 "/></g></g></g><g fill="#ffffff" fill-opacity="1"><g transform="translate(82.545745, 74.700369)"><g><path d="M 25.390625 -36.640625 C 26.859375 -36.640625 28.050781 -36.328125 28.96875 -35.703125 C 29.894531 -35.085938 30.578125 -34.296875 31.015625 -33.328125 C 31.453125 -32.359375 31.671875 -31.347656 31.671875 -30.296875 C 31.671875 -28.585938 31.175781 -27.191406 30.1875 -26.109375 C 29.195312 -25.035156 27.894531 -24.5 26.28125 -24.5 C 24.675781 -24.5 23.425781 -24.898438 22.53125 -25.703125 C 21.632812 -26.503906 21.1875 -27.570312 21.1875 -28.90625 C 21.1875 -30.195312 21.472656 -31.265625 22.046875 -32.109375 C 22.617188 -32.960938 23.34375 -33.691406 24.21875 -34.296875 C 23.570312 -34.472656 22.925781 -34.445312 22.28125 -34.21875 C 21.40625 -34.082031 20.578125 -33.726562 19.796875 -33.15625 C 19.015625 -32.582031 18.347656 -31.867188 17.796875 -31.015625 C 17.242188 -30.160156 16.804688 -29.238281 16.484375 -28.25 C 16.171875 -27.257812 16.015625 -26.304688 16.015625 -25.390625 L 16.015625 -7.109375 C 16.015625 -4.898438 16.550781 -3.40625 17.625 -2.625 C 18.707031 -1.84375 20.332031 -1.453125 22.5 -1.453125 L 22.5 0 C 21.4375 -0.0390625 19.890625 -0.0976562 17.859375 -0.171875 C 15.835938 -0.242188 13.722656 -0.28125 11.515625 -0.28125 C 9.679688 -0.28125 7.820312 -0.242188 5.9375 -0.171875 C 4.050781 -0.0976562 2.625 -0.0390625 1.65625 0 L 1.65625 -1.453125 C 3.269531 -1.453125 4.410156 -1.796875 5.078125 -2.484375 C 5.742188 -3.171875 6.078125 -4.484375 6.078125 -6.421875 L 6.078125 -28.15625 C 6.078125 -30.21875 5.765625 -31.742188 5.140625 -32.734375 C 4.515625 -33.722656 3.351562 -34.21875 1.65625 -34.21875 L 1.65625 -35.671875 C 3.125 -35.535156 4.550781 -35.46875 5.9375 -35.46875 C 7.863281 -35.46875 9.664062 -35.546875 11.34375 -35.703125 C 13.03125 -35.867188 14.585938 -36.113281 16.015625 -36.4375 L 16.015625 -30.015625 C 16.566406 -31.253906 17.300781 -32.378906 18.21875 -33.390625 C 19.132812 -34.398438 20.191406 -35.191406 21.390625 -35.765625 C 22.585938 -36.347656 23.921875 -36.640625 25.390625 -36.640625 Z M 25.390625 -36.640625 "/></g></g></g><g fill="#ffffff" fill-opacity="1"><g transform="translate(114.766316, 74.700369)"><g><path d="M 15.65625 -46.984375 L 15.65625 -35.671875 L 23.8125 -35.671875 L 23.8125 -34.296875 L 15.65625 -34.296875 L 15.65625 -6.421875 C 15.65625 -5.035156 15.910156 -4.054688 16.421875 -3.484375 C 16.929688 -2.910156 17.691406 -2.625 18.703125 -2.625 C 19.523438 -2.625 20.347656 -2.929688 21.171875 -3.546875 C 22.003906 -4.171875 22.742188 -5.242188 23.390625 -6.765625 L 24.5625 -6.140625 C 23.820312 -4.066406 22.703125 -2.363281 21.203125 -1.03125 C 19.710938 0.300781 17.679688 0.96875 15.109375 0.96875 C 13.585938 0.96875 12.253906 0.769531 11.109375 0.375 C 9.960938 -0.0078125 9 -0.59375 8.21875 -1.375 C 7.195312 -2.382812 6.523438 -3.640625 6.203125 -5.140625 C 5.890625 -6.640625 5.734375 -8.582031 5.734375 -10.96875 L 5.734375 -34.296875 L -0.0625 -34.296875 L -0.0625 -35.671875 L 5.734375 -35.671875 L 5.734375 -44.78125 C 7.660156 -44.78125 9.441406 -44.953125 11.078125 -45.296875 C 12.710938 -45.640625 14.238281 -46.203125 15.65625 -46.984375 Z M 15.65625 -46.984375 "/></g></g></g><g fill="#ffffff" fill-opacity="1"><g transform="translate(138.569505, 74.700369)"><g/></g></g><g fill="#ffffff" fill-opacity="1"><g transform="translate(154.645294, 74.700369)"><g><path d="M 24.078125 -48.859375 L 24.078125 -47.46875 C 22.515625 -47.425781 21.328125 -47.253906 20.515625 -46.953125 C 19.710938 -46.648438 19.171875 -46.097656 18.890625 -45.296875 C 18.617188 -44.492188 18.484375 -43.238281 18.484375 -41.53125 L 18.484375 -6.484375 C 18.484375 -5.054688 18.585938 -4 18.796875 -3.3125 C 19.003906 -2.625 19.414062 -2.164062 20.03125 -1.9375 C 20.65625 -1.707031 21.59375 -1.59375 22.84375 -1.59375 L 26.21875 -1.59375 C 27.78125 -1.59375 29.25 -1.957031 30.625 -2.6875 C 32.007812 -3.425781 33.253906 -4.472656 34.359375 -5.828125 C 35.460938 -7.179688 36.378906 -8.800781 37.109375 -10.6875 C 37.847656 -12.582031 38.40625 -14.675781 38.78125 -16.96875 L 40.359375 -16.96875 C 40.222656 -15.40625 40.15625 -13.382812 40.15625 -10.90625 C 40.15625 -9.84375 40.175781 -8.300781 40.21875 -6.28125 C 40.269531 -4.257812 40.410156 -2.164062 40.640625 0 C 38.296875 -0.09375 35.648438 -0.148438 32.703125 -0.171875 C 29.765625 -0.191406 27.144531 -0.203125 24.84375 -0.203125 C 23.6875 -0.203125 22.210938 -0.203125 20.421875 -0.203125 C 18.628906 -0.203125 16.695312 -0.191406 14.625 -0.171875 C 12.550781 -0.148438 10.457031 -0.125 8.34375 -0.09375 C 6.226562 -0.0703125 4.226562 -0.0390625 2.34375 0 L 2.34375 -1.375 C 3.8125 -1.46875 4.914062 -1.648438 5.65625 -1.921875 C 6.394531 -2.203125 6.890625 -2.753906 7.140625 -3.578125 C 7.390625 -4.410156 7.515625 -5.65625 7.515625 -7.3125 L 7.515625 -41.53125 C 7.515625 -43.238281 7.390625 -44.492188 7.140625 -45.296875 C 6.890625 -46.097656 6.382812 -46.648438 5.625 -46.953125 C 4.863281 -47.253906 3.769531 -47.425781 2.34375 -47.46875 L 2.34375 -48.859375 C 3.5 -48.804688 5.050781 -48.753906 7 -48.703125 C 8.957031 -48.660156 11.039062 -48.640625 13.25 -48.640625 C 15.269531 -48.640625 17.257812 -48.660156 19.21875 -48.703125 C 21.175781 -48.753906 22.796875 -48.804688 24.078125 -48.859375 Z M 24.078125 -48.859375 "/></g></g></g><g fill="#ffffff" fill-opacity="1"><g transform="translate(196.801117, 74.700369)"><g><path d="M 11.171875 0.484375 C 9.109375 0.484375 7.382812 0.09375 6 -0.6875 C 4.625 -1.46875 3.613281 -2.515625 2.96875 -3.828125 C 2.320312 -5.140625 2 -6.578125 2 -8.140625 C 2 -10.117188 2.445312 -11.726562 3.34375 -12.96875 C 4.238281 -14.207031 5.398438 -15.21875 6.828125 -16 C 8.253906 -16.789062 9.757812 -17.4375 11.34375 -17.9375 C 12.9375 -18.445312 14.457031 -18.941406 15.90625 -19.421875 C 17.351562 -19.898438 18.523438 -20.472656 19.421875 -21.140625 C 20.316406 -21.816406 20.765625 -22.679688 20.765625 -23.734375 L 20.765625 -29.125 C 20.765625 -30.3125 20.566406 -31.375 20.171875 -32.3125 C 19.785156 -33.257812 19.191406 -33.988281 18.390625 -34.5 C 17.585938 -35.007812 16.539062 -35.265625 15.25 -35.265625 C 14.332031 -35.265625 13.410156 -35.132812 12.484375 -34.875 C 11.566406 -34.625 10.8125 -34.203125 10.21875 -33.609375 C 11.5 -33.140625 12.492188 -32.429688 13.203125 -31.484375 C 13.921875 -30.546875 14.28125 -29.484375 14.28125 -28.296875 C 14.28125 -26.722656 13.738281 -25.476562 12.65625 -24.5625 C 11.582031 -23.644531 10.304688 -23.1875 8.828125 -23.1875 C 7.171875 -23.1875 5.914062 -23.703125 5.0625 -24.734375 C 4.21875 -25.765625 3.796875 -27.019531 3.796875 -28.5 C 3.796875 -29.832031 4.128906 -30.9375 4.796875 -31.8125 C 5.460938 -32.6875 6.394531 -33.515625 7.59375 -34.296875 C 8.875 -35.023438 10.421875 -35.597656 12.234375 -36.015625 C 14.054688 -36.429688 16.023438 -36.640625 18.140625 -36.640625 C 20.265625 -36.640625 22.175781 -36.421875 23.875 -35.984375 C 25.570312 -35.546875 27 -34.753906 28.15625 -33.609375 C 29.207031 -32.546875 29.894531 -31.242188 30.21875 -29.703125 C 30.539062 -28.160156 30.703125 -26.21875 30.703125 -23.875 L 30.703125 -5.109375 C 30.703125 -3.953125 30.816406 -3.15625 31.046875 -2.71875 C 31.273438 -2.28125 31.664062 -2.0625 32.21875 -2.0625 C 32.632812 -2.0625 33.035156 -2.175781 33.421875 -2.40625 C 33.816406 -2.644531 34.242188 -2.925781 34.703125 -3.25 L 35.390625 -2.0625 C 34.429688 -1.238281 33.316406 -0.609375 32.046875 -0.171875 C 30.785156 0.265625 29.375 0.484375 27.8125 0.484375 C 26.101562 0.484375 24.742188 0.242188 23.734375 -0.234375 C 22.722656 -0.722656 22 -1.378906 21.5625 -2.203125 C 21.125 -3.035156 20.90625 -4.003906 20.90625 -5.109375 C 19.800781 -3.359375 18.46875 -1.988281 16.90625 -1 C 15.34375 -0.0078125 13.429688 0.484375 11.171875 0.484375 Z M 16.078125 -3.9375 C 16.992188 -3.9375 17.832031 -4.15625 18.59375 -4.59375 C 19.351562 -5.03125 20.078125 -5.753906 20.765625 -6.765625 L 20.765625 -20.90625 C 20.347656 -20.21875 19.769531 -19.597656 19.03125 -19.046875 C 18.300781 -18.492188 17.519531 -17.925781 16.6875 -17.34375 C 15.863281 -16.769531 15.070312 -16.140625 14.3125 -15.453125 C 13.550781 -14.765625 12.941406 -13.914062 12.484375 -12.90625 C 12.023438 -11.894531 11.796875 -10.675781 11.796875 -9.25 C 11.796875 -7.457031 12.1875 -6.125 12.96875 -5.25 C 13.75 -4.375 14.785156 -3.9375 16.078125 -3.9375 Z M 16.078125 -3.9375 "/></g></g></g><g fill="#ffffff" fill-opacity="1"><g transform="translate(232.540422, 74.700369)"><g><path d="M 15.65625 -54.03125 L 15.65625 -6.421875 C 15.65625 -4.484375 15.96875 -3.171875 16.59375 -2.484375 C 17.21875 -1.796875 18.285156 -1.453125 19.796875 -1.453125 L 19.796875 0 C 18.921875 -0.0390625 17.644531 -0.0976562 15.96875 -0.171875 C 14.289062 -0.242188 12.578125 -0.28125 10.828125 -0.28125 C 9.035156 -0.28125 7.226562 -0.242188 5.40625 -0.171875 C 3.59375 -0.0976562 2.226562 -0.0390625 1.3125 0 L 1.3125 -1.453125 C 2.914062 -1.453125 4.050781 -1.796875 4.71875 -2.484375 C 5.394531 -3.171875 5.734375 -4.484375 5.734375 -6.421875 L 5.734375 -45.75 C 5.734375 -47.820312 5.421875 -49.347656 4.796875 -50.328125 C 4.171875 -51.316406 3.007812 -51.8125 1.3125 -51.8125 L 1.3125 -53.265625 C 2.78125 -53.128906 4.207031 -53.0625 5.59375 -53.0625 C 7.476562 -53.0625 9.269531 -53.140625 10.96875 -53.296875 C 12.675781 -53.460938 14.238281 -53.707031 15.65625 -54.03125 Z M 38.15625 -35.671875 L 38.15625 -34.296875 C 36.726562 -34.015625 35.300781 -33.414062 33.875 -32.5 C 32.445312 -31.582031 31 -30.410156 29.53125 -28.984375 L 24.21875 -23.453125 L 24.90625 -24.765625 L 36.703125 -5.03125 C 37.210938 -4.207031 37.742188 -3.472656 38.296875 -2.828125 C 38.847656 -2.179688 39.515625 -1.722656 40.296875 -1.453125 L 40.296875 0 C 39.609375 -0.0390625 38.570312 -0.0976562 37.1875 -0.171875 C 35.8125 -0.242188 34.429688 -0.28125 33.046875 -0.28125 C 31.347656 -0.28125 29.644531 -0.242188 27.9375 -0.171875 C 26.238281 -0.0976562 24.976562 -0.0390625 24.15625 0 L 24.15625 -1.453125 C 25.070312 -1.453125 25.691406 -1.671875 26.015625 -2.109375 C 26.335938 -2.546875 26.289062 -3.109375 25.875 -3.796875 L 19.046875 -16.140625 C 18.492188 -17.015625 17.953125 -17.578125 17.421875 -17.828125 C 16.890625 -18.085938 16.1875 -18.238281 15.3125 -18.28125 L 15.3125 -19.59375 C 16.28125 -19.6875 17.117188 -19.847656 17.828125 -20.078125 C 18.546875 -20.304688 19.203125 -20.742188 19.796875 -21.390625 L 25.046875 -26.5 C 26.609375 -27.96875 27.390625 -29.273438 27.390625 -30.421875 C 27.390625 -31.578125 26.894531 -32.5 25.90625 -33.1875 C 24.914062 -33.875 23.617188 -34.242188 22.015625 -34.296875 L 22.015625 -35.671875 C 23.296875 -35.628906 24.695312 -35.582031 26.21875 -35.53125 C 27.738281 -35.488281 29.023438 -35.46875 30.078125 -35.46875 C 31.003906 -35.46875 31.984375 -35.476562 33.015625 -35.5 C 34.046875 -35.519531 35.019531 -35.539062 35.9375 -35.5625 C 36.863281 -35.59375 37.601562 -35.628906 38.15625 -35.671875 Z M 38.15625 -35.671875 "/></g></g></g><g fill="#ffffff" fill-opacity="1"><g transform="translate(271.315412, 74.700369)"><g><path d="M 19.453125 -36.640625 C 23.503906 -36.640625 26.679688 -35.441406 28.984375 -33.046875 C 31.285156 -30.660156 32.4375 -26.753906 32.4375 -21.328125 L 9.734375 -21.328125 L 9.59375 -22.625 L 23.734375 -22.625 C 23.785156 -24.882812 23.648438 -26.96875 23.328125 -28.875 C 23.003906 -30.78125 22.492188 -32.304688 21.796875 -33.453125 C 21.109375 -34.609375 20.191406 -35.1875 19.046875 -35.1875 C 17.429688 -35.1875 16.0625 -34.175781 14.9375 -32.15625 C 13.8125 -30.132812 13.132812 -26.773438 12.90625 -22.078125 L 13.109375 -21.671875 C 13.066406 -21.117188 13.03125 -20.539062 13 -19.9375 C 12.976562 -19.34375 12.96875 -18.722656 12.96875 -18.078125 C 12.96875 -14.898438 13.414062 -12.320312 14.3125 -10.34375 C 15.207031 -8.375 16.34375 -6.9375 17.71875 -6.03125 C 19.101562 -5.132812 20.507812 -4.6875 21.9375 -4.6875 C 22.90625 -4.6875 23.90625 -4.835938 24.9375 -5.140625 C 25.976562 -5.441406 27.023438 -5.992188 28.078125 -6.796875 C 29.140625 -7.597656 30.128906 -8.738281 31.046875 -10.21875 L 32.296875 -9.796875 C 31.742188 -8.046875 30.867188 -6.34375 29.671875 -4.6875 C 28.472656 -3.03125 26.953125 -1.671875 25.109375 -0.609375 C 23.273438 0.441406 21.066406 0.96875 18.484375 0.96875 C 15.359375 0.96875 12.597656 0.300781 10.203125 -1.03125 C 7.816406 -2.363281 5.941406 -4.382812 4.578125 -7.09375 C 3.222656 -9.8125 2.546875 -13.265625 2.546875 -17.453125 C 2.546875 -21.734375 3.269531 -25.300781 4.71875 -28.15625 C 6.175781 -31.007812 8.179688 -33.132812 10.734375 -34.53125 C 13.285156 -35.9375 16.191406 -36.640625 19.453125 -36.640625 Z M 19.453125 -36.640625 "/></g></g></g><g fill="#ffffff" fill-opacity="1"><g transform="translate(305.674805, 74.700369)"><g><path d="M 27.328125 -36.640625 C 29.253906 -36.640625 30.828125 -36.394531 32.046875 -35.90625 C 33.265625 -35.425781 34.21875 -34.773438 34.90625 -33.953125 C 35.644531 -33.078125 36.1875 -31.945312 36.53125 -30.5625 C 36.875 -29.1875 37.046875 -27.328125 37.046875 -24.984375 L 37.046875 -6.421875 C 37.046875 -4.484375 37.378906 -3.171875 38.046875 -2.484375 C 38.710938 -1.796875 39.851562 -1.453125 41.46875 -1.453125 L 41.46875 0 C 40.59375 -0.0390625 39.28125 -0.0976562 37.53125 -0.171875 C 35.78125 -0.242188 34.054688 -0.28125 32.359375 -0.28125 C 30.609375 -0.28125 28.894531 -0.242188 27.21875 -0.171875 C 25.539062 -0.0976562 24.265625 -0.0390625 23.390625 0 L 23.390625 -1.453125 C 24.773438 -1.453125 25.738281 -1.796875 26.28125 -2.484375 C 26.832031 -3.171875 27.109375 -4.484375 27.109375 -6.421875 L 27.109375 -27.875 C 27.109375 -29.019531 26.992188 -30.019531 26.765625 -30.875 C 26.535156 -31.726562 26.125 -32.394531 25.53125 -32.875 C 24.9375 -33.363281 24.039062 -33.609375 22.84375 -33.609375 C 21.59375 -33.609375 20.453125 -33.257812 19.421875 -32.5625 C 18.390625 -31.875 17.5625 -30.921875 16.9375 -29.703125 C 16.320312 -28.484375 16.015625 -27.113281 16.015625 -25.59375 L 16.015625 -6.421875 C 16.015625 -4.484375 16.300781 -3.171875 16.875 -2.484375 C 17.445312 -1.796875 18.398438 -1.453125 19.734375 -1.453125 L 19.734375 0 C 18.898438 -0.0390625 17.691406 -0.0976562 16.109375 -0.171875 C 14.523438 -0.242188 12.878906 -0.28125 11.171875 -0.28125 C 9.429688 -0.28125 7.640625 -0.242188 5.796875 -0.171875 C 3.953125 -0.0976562 2.570312 -0.0390625 1.65625 0 L 1.65625 -1.453125 C 3.269531 -1.453125 4.410156 -1.796875 5.078125 -2.484375 C 5.742188 -3.171875 6.078125 -4.484375 6.078125 -6.421875 L 6.078125 -28.15625 C 6.078125 -30.21875 5.765625 -31.742188 5.140625 -32.734375 C 4.515625 -33.722656 3.351562 -34.21875 1.65625 -34.21875 L 1.65625 -35.671875 C 3.125 -35.535156 4.550781 -35.46875 5.9375 -35.46875 C 7.863281 -35.46875 9.664062 -35.546875 11.34375 -35.703125 C 13.03125 -35.867188 14.585938 -36.113281 16.015625 -36.4375 L 16.015625 -30.21875 C 17.160156 -32.5625 18.722656 -34.21875 20.703125 -35.1875 C 22.679688 -36.15625 24.890625 -36.640625 27.328125 -36.640625 Z M 27.328125 -36.640625 "/></g></g></g></g></g></g><g clip-path="url(#a61ff307fe)"><path fill="#708aa3" d="M 67.539062 56.828125 C 67.539062 74.617188 53.121094 89.035156 35.335938 89.035156 C 17.550781 89.035156 3.128906 74.617188 3.128906 56.828125 C 3.128906 39.042969 17.550781 24.625 35.335938 24.625 C 53.121094 24.625 67.539062 39.042969 67.539062 56.828125 " fill-opacity="1" fill-rule="nonzero"/></g><path fill="#ffffff" d="M 14.078125 62.613281 L 1.753906 62.636719 L 17.675781 43.847656 L 19.492188 43.847656 L 29.992188 31.808594 L 39.789062 43.847656 L 14.078125 62.613281 " fill-opacity="1" fill-rule="nonzero"/><path fill="#708aa3" d="M 33.210938 61.792969 L 67.359375 61.792969 L 58.757812 49.339844 L 56.335938 49.339844 L 46.117188 35.554688 L 43.429688 35.554688 L 37.511719 44.003906 L 34.691406 44.003906 L 24.742188 55.417969 L 33.210938 61.792969 " fill-opacity="1" fill-rule="nonzero"/><path fill="#708aa3" d="M 9.382812 61.792969 L 44.472656 61.792969 L 29.011719 41.039062 L 19.0625 52.898438 L 16.777344 52.898438 L 9.382812 61.792969 " fill-opacity="1" fill-rule="nonzero"/><path fill="#ffffff" d="M 42.800781 60.953125 L 28.972656 42.390625 L 19.453125 53.738281 L 17.171875 53.738281 L 11.171875 60.953125 Z M 9.382812 62.632812 L 7.59375 62.632812 L 16.382812 52.058594 L 18.671875 52.058594 L 29.050781 39.6875 L 46.144531 62.632812 L 9.382812 62.632812 " fill-opacity="1" fill-rule="nonzero"/><path fill="#ffffff" d="M 37.96875 52.523438 L 45.25 41.746094 L 45.214844 49.128906 L 46.824219 44.125 L 49.726562 52.523438 L 49.449219 45.246094 L 61.625 61.625 L 44.472656 61.792969 L 37.96875 52.523438 " fill-opacity="1" fill-rule="nonzero"/><path fill="#ffffff" d="M 19.492188 61.761719 L 29.433594 48.605469 L 29.464844 54.414062 L 30.832031 50.984375 L 32.792969 56.445312 L 32.582031 51.125 L 40.140625 61.34375 L 19.492188 61.761719 " fill-opacity="1" fill-rule="nonzero"/><g clip-path="url(#e018316080)"><path fill="#ffffff" d="M 2.867188 63.234375 C 2.867188 63.234375 14.1875 56.085938 27.144531 61.742188 C 27.144531 61.742188 31.910156 62.042969 38.015625 59.957031 C 44.121094 57.871094 53.804688 54.148438 66.910156 65.167969 C 66.910156 65.167969 62.886719 82.148438 46.804688 87.957031 C 30.71875 93.761719 10.910156 88.253906 2.867188 63.234375 " fill-opacity="1" fill-rule="nonzero"/></g><path fill="#708aa3" d="M 58.746094 68.863281 C 58.746094 68.863281 48.953125 74.042969 38.9375 68.746094 C 28.917969 63.445312 20.425781 58.898438 8.625 62.277344 C 8.625 62.277344 17.476562 61.480469 24.027344 65.992188 C 30.578125 70.5 44.675781 78.480469 58.746094 68.863281 " fill-opacity="1" fill-rule="nonzero"/><g clip-path="url(#fc7d3e2364)"><path fill="#708aa3" d="M 43.914062 74.632812 C 43.914062 74.632812 36.289062 75.144531 27.199219 69.8125 C 18.109375 64.484375 12.011719 61.484375 0.929688 65.1875 C 0.929688 65.1875 9.535156 63.910156 19.214844 70.113281 C 28.894531 76.316406 37.121094 76.496094 43.914062 74.632812 " fill-opacity="1" fill-rule="nonzero"/></g><g clip-path="url(#3002fb7871)"><path fill="#708aa3" d="M 68.84375 67.410156 C 68.84375 67.410156 64.214844 65.988281 56.753906 68.175781 C 49.292969 70.363281 43.941406 70.097656 39.011719 67.640625 C 39.011719 67.640625 43.835938 68.886719 49.152344 66.925781 C 54.46875 64.96875 62.667969 62.828125 68.84375 67.410156 " fill-opacity="1" fill-rule="nonzero"/></g><path fill="#708aa3" d="M 63.15625 63.789062 C 63.15625 63.789062 57.167969 63.386719 54.054688 64.199219 C 50.945312 65.011719 42.335938 69.15625 34.175781 65.1875 C 34.175781 65.1875 38.871094 65.59375 45.015625 63.6875 C 51.160156 61.785156 55.960938 60.621094 63.15625 63.789062 " fill-opacity="1" fill-rule="nonzero"/><path fill="#708aa3" d="M 58.136719 61.324219 C 58.136719 61.324219 54.320312 60.234375 49.996094 61.242188 C 45.667969 62.25 36.984375 66.113281 29.042969 62.992188 C 29.042969 62.992188 33.265625 63.550781 40.210938 60.773438 C 47.15625 57.996094 54.128906 58.925781 58.136719 61.324219 " fill-opacity="1" fill-rule="nonzero"/><path fill="#708aa3" d="M 15.957031 76.535156 C 23.3125 80.949219 31.296875 80.738281 31.296875 80.738281 C 22.46875 79.480469 17.277344 75.347656 13.644531 73.488281 C 10.644531 71.957031 8.109375 71.269531 6.65625 70.972656 C 6.015625 69.585938 5.464844 68.148438 5.027344 66.660156 C 7.796875 66.84375 12.089844 67.585938 16.324219 70.128906 C 23.417969 74.382812 25.9375 76.117188 33.660156 76.90625 C 41.382812 77.691406 54.460938 73.4375 58.558594 70.601562 C 60.941406 68.953125 63.429688 68.636719 65.097656 68.660156 C 60.640625 80.738281 49.023438 89.355469 35.394531 89.355469 C 23.425781 89.355469 13.015625 82.707031 7.636719 72.910156 C 9.328125 73.207031 11.84375 74.070312 15.957031 76.535156 " fill-opacity="1" fill-rule="nonzero"/><g clip-path="url(#a157642e5d)"><path fill="#ffffff" d="M 59.195312 48.5 L 56.757812 48.5 L 46.539062 34.714844 L 42.992188 34.714844 L 37.074219 43.164062 L 34.308594 43.164062 L 32.296875 45.472656 L 33.359375 46.808594 L 35.070312 44.84375 L 37.949219 44.84375 L 43.863281 36.394531 L 45.695312 36.394531 L 55.910156 50.179688 L 58.3125 50.179688 L 67.265625 63.15625 L 68.960938 62.632812 L 59.195312 48.5 " fill-opacity="1" fill-rule="nonzero"/></g></svg>